<?xml version="1.0" encoding="UTF-8"?>
<svg width="173px" height="40px" viewBox="0 0 173 40" version="1.1" xmlns="http://www.w3.org/2000/svg" xmlns:xlink="http://www.w3.org/1999/xlink">
    <!-- Generator: Sketch 48.2 (47327) - http://www.bohemiancoding.com/sketch -->
    <title>logo</title>
    <desc>Created with Sketch.</desc>
    <defs></defs>
    <g id="Header" stroke="none" stroke-width="1" fill="none" fill-rule="evenodd" transform="translate(-2.000000, 0.000000)">
        <g transform="translate(0.000000, -1.000000)" id="logo">
            <g>
                <g id="logo-symbol">
                    <g id="Group" transform="translate(56.000000, 10.000000)" fill="#0D222F">
                        <polygon id="Path-3" points="0.204107656 2.43609139 0.204107656 20.5312183 12.9428574 20.5312183 12.9428574 17.1114732 3.84566537 17.1114732 3.84566537 2.43609139"></polygon>
                        <path d="M25.4506245,8.18468111 L25.4541271,7.10000229 L29.0900495,7.10000229 L29.0459719,20.7500019 L25.4100494,20.7500019 L25.4129677,19.8462804 C24.2943893,20.7592306 22.9051543,21.3000011 21.3999968,21.3000011 C17.699689,21.3000011 14.6999969,18.0316797 14.6999969,14.000001 C14.6999969,9.96832217 17.699689,6.70000076 21.3999968,6.70000076 C22.9220909,6.70000076 24.3256389,7.25300961 25.4506245,8.18468111 Z M21.7999909,17.9600029 C23.8434445,17.9600029 25.4999909,16.1646646 25.4999909,13.9500027 C25.4999909,11.7353407 23.8434445,9.94000244 21.7999909,9.94000244 C19.7565373,9.94000244 18.0999908,11.7353407 18.0999908,13.9500027 C18.0999908,16.1646646 19.7565373,17.9600029 21.7999909,17.9600029 Z" id="Combined-Shape"></path>
                        <path d="M35.9723482,9.51916867 C37.1925768,7.56152455 39.0358418,6.74484328 41.5021433,7.06912487 C41.5056989,7.66264541 41.5056989,8.86594037 41.5021433,10.6790097 C38.1192707,10.4638539 36.2695139,12.0876233 35.9528729,15.550318 L35.9359255,20.7986013 L32.3000031,20.7986013 L32.3440807,7.14860168 L35.9800031,7.14860168 L35.9723482,9.51916867 Z" id="Combined-Shape"></path>
                        <path d="M53.0506153,8.18468111 L53.0541179,7.10000229 L56.6900403,7.10000229 L56.6459627,20.7500019 L53.0100403,20.7500019 L53.0129585,19.8462804 C51.8943801,20.7592306 50.5051452,21.3000011 48.9999876,21.3000011 C45.2996799,21.3000011 42.2999878,18.0316797 42.2999878,14.000001 C42.2999878,9.96832217 45.2996799,6.70000076 48.9999876,6.70000076 C50.5220817,6.70000076 51.9256297,7.25300961 53.0506153,8.18468111 Z M49.3999817,17.9600029 C51.4434353,17.9600029 53.0999818,16.1646646 53.0999818,13.9500027 C53.0999818,11.7353407 51.4434353,9.94000244 49.3999817,9.94000244 C47.3565281,9.94000244 45.6999817,11.7353407 45.6999817,13.9500027 C45.6999817,16.1646646 47.3565281,17.9600029 49.3999817,17.9600029 Z" id="Combined-Shape-Copy-2"></path>
                        <path d="M64.5700226,7.10681803 L68.4885512,7.10681803 L68.4885512,9.99478457 L64.5630064,9.99478457 L64.5371201,20.6499996 L61,20.6499996 L61.0258864,9.99478457 L59.0100098,9.99478457 L59.0100098,7.10681803 L61.0329025,7.10681803 L61.0329445,7.08953511 C60.925623,4.41305379 61.5775719,2.57572466 62.988791,1.57754771 C64.4000101,0.579370771 66.2629226,0.476681555 68.5775286,1.26948006 L67.7803085,4.118845 C66.6031831,3.84570262 65.7437136,3.92598601 65.2019001,4.35969518 C64.6600865,4.79340435 64.4494986,5.6934966 64.5701364,7.05997192 L64.5700226,7.10681803 Z" id="Path-7"></path>
                        <path d="M76.049994,21.000001 C72.101158,21.000001 68.8999939,17.7988369 68.8999939,13.8500009 C68.8999939,9.90116484 72.101158,6.70000076 76.049994,6.70000076 C79.99883,6.70000076 83.1999941,9.90116484 83.1999941,13.8500009 C83.1999941,17.7988369 79.99883,21.000001 76.049994,21.000001 Z M76.1000061,17.8500004 C78.1710739,17.8500004 79.8500061,16.0591394 79.8500061,13.8500004 C79.8500061,11.6408614 78.1710739,9.85000038 76.1000061,9.85000038 C74.0289383,9.85000038 72.3500061,11.6408614 72.3500061,13.8500004 C72.3500061,16.0591394 74.0289383,17.8500004 76.1000061,17.8500004 Z" id="Combined-Shape"></path>
                        <path d="M89.2723513,9.51916867 C90.4925798,7.56152455 92.3358448,6.74484328 94.8021464,7.06912487 C94.8057019,7.66264541 94.8057019,8.86594037 94.8021464,10.6790097 C91.4192738,10.4638539 89.5695169,12.0876233 89.2528759,15.550318 L89.2359285,20.7986013 L85.6000061,20.7986013 L85.6440837,7.14860168 L89.2800062,7.14860168 L89.2723513,9.51916867 Z" id="Combined-Shape-Copy"></path>
                        <path d="M100.576743,8.00682702 C101.316595,7.13560697 102.584308,6.69999695 104.379883,6.69999695 C106.271257,6.69999695 107.706237,7.41158203 108.684822,8.83475218 C109.671525,7.41158203 111.248083,6.69999695 113.414496,6.69999695 C116.814858,6.69999695 118.514993,8.94194564 118.514902,13.425843 L118.515038,20.5885668 L115.110127,20.5885668 L115.110127,13.425843 C114.963923,11.1413062 114.056198,9.99903772 112.386951,9.99903772 C109.88308,9.99903772 109.728463,12.5407524 109.3684,13.425843 C109.370069,15.1478639 109.370069,17.5354385 109.3684,20.5885668 L106.046788,20.5885668 L106.046788,13.425843 C105.906531,11.1413062 105.010411,9.99903772 103.358429,9.99903772 C101.884971,9.99903772 100.952597,10.9283379 100.561307,12.7869382 L100.535916,20.6499996 L96.8999939,20.6499996 L96.9440715,7 L100.579994,7 L100.576743,8.00682702 Z" id="Combined-Shape"></path>
                    </g>
                    <path d="M3.59685391,8.2275742 C4.32379121,7.23758315 5.3082663,6.61655183 6.55027917,6.36448023 L31.8153425,1.90956788 C33.0775774,1.69027091 34.2231841,1.94409763 35.2521626,2.67104804 C36.2811412,3.39799845 36.9056482,4.38541522 37.1256836,5.63329835 L41.5814181,30.9030242 C41.8046044,32.1484757 41.5553969,33.2894881 40.8337956,34.3260615 C40.1121943,35.3626349 39.1265152,35.9911045 37.8767583,36.2114704 L12.5961616,40.6691217 C11.3606422,40.8869771 10.2228515,40.6329325 9.18278928,39.9069879 C8.14272709,39.1810433 7.50760414,38.1966366 7.27742041,36.9537677 L2.82004467,11.6735236 C2.61098019,10.3662151 2.86991661,9.21756524 3.59685391,8.2275742 Z" id="Rectangle-Copy-4" fill="#24ACF8" opacity="0.428600532"></path>
                    <path d="M7.70839573,5.83579152 C8.54946728,5.03174678 9.57011703,4.61429719 10.770345,4.58344274 L35.074748,4.58344274 C36.2884507,4.5864927 37.3155105,5.01176644 38.1559272,5.85926396 C38.9963439,6.70676148 39.4165523,7.7307275 39.4165523,8.93116204 L39.4165523,33.2400502 C39.4198919,34.4387344 38.9996836,35.4622678 38.1559272,36.3106502 C37.3121708,37.1590327 36.2891741,37.5832239 35.0869371,37.5832239 L10.7675914,37.5832239 C9.5790505,37.5832239 8.55931863,37.1590327 7.70839573,36.3106502 C6.85747283,35.4622678 6.42686493,34.4393636 6.41657203,33.2419378 L6.41677109,8.9229664 C6.43678264,7.66889455 6.86732418,6.63983625 7.70839573,5.83579152 Z" id="Rectangle-Copy-6" fill="#24ACF8"></path>
                    <path d="M15.4438406,13.75 L15.4936594,13.75 C16.4291417,13.75 17.1875,14.5083583 17.1875,15.4438406 C17.1875,16.3793229 16.4291417,17.1376812 15.4936594,17.1376812 L15.4438406,17.1376812 C14.5083583,17.1376812 13.75,16.3793229 13.75,15.4438406 C13.75,14.5083583 14.5083583,13.75 15.4438406,13.75 Z M15.4438406,19.8478261 L15.4936594,19.8478261 C16.4291417,19.8478261 17.1875,20.6061843 17.1875,21.5416667 C17.1875,22.477149 16.4291417,23.2355072 15.4936594,23.2355072 L15.4438406,23.2355072 C14.5083583,23.2355072 13.75,22.477149 13.75,21.5416667 C13.75,20.6061843 14.5083583,19.8478261 15.4438406,19.8478261 Z M20.2563406,13.75 L29.2436594,13.75 C30.1791417,13.75 30.9375,14.5083583 30.9375,15.4438406 C30.9375,16.3793229 30.1791417,17.1376812 29.2436594,17.1376812 L20.2563406,17.1376812 C19.3208583,17.1376812 18.5625,16.3793229 18.5625,15.4438406 C18.5625,14.5083583 19.3208583,13.75 20.2563406,13.75 Z M20.2563406,19.8478261 L25.8061594,19.8478261 C26.7416417,19.8478261 27.5,20.6061843 27.5,21.5416667 C27.5,22.477149 26.7416417,23.2355072 25.8061594,23.2355072 L20.2563406,23.2355072 C19.3208583,23.2355072 18.5625,22.477149 18.5625,21.5416667 C18.5625,20.6061843 19.3208583,19.8478261 20.2563406,19.8478261 Z M15.4438406,25.9456522 L31.3061594,25.9456522 C32.2416417,25.9456522 33,26.7040104 33,27.6394928 C33,28.5749751 32.2416417,29.3333333 31.3061594,29.3333333 L15.4438406,29.3333333 C14.5083583,29.3333333 13.75,28.5749751 13.75,27.6394928 C13.75,26.7040104 14.5083583,25.9456522 15.4438406,25.9456522 Z" id="Combined-Shape" fill="#FFFFFF"></path>
                </g>
            </g>
        </g>
    </g>
</svg>